<?xml version="1.0" encoding="UTF-8" standalone="no"?>
<!-- Created with Inkscape (http://www.inkscape.org/) -->

<svg
   width="70.237572mm"
   height="21.16563mm"
   viewBox="0 0 70.237572 21.16563"
   version="1.1"
   id="svg1"
   inkscape:version="1.3.2 (091e20e, 2023-11-25, custom)"
   sodipodi:docname="drawing.svg"
   xmlns:inkscape="http://www.inkscape.org/namespaces/inkscape"
   xmlns:sodipodi="http://sodipodi.sourceforge.net/DTD/sodipodi-0.dtd"
   xmlns="http://www.w3.org/2000/svg"
   xmlns:svg="http://www.w3.org/2000/svg">
  <sodipodi:namedview
     id="namedview1"
     pagecolor="#505050"
     bordercolor="#eeeeee"
     borderopacity="1"
     inkscape:showpageshadow="0"
     inkscape:pageopacity="0"
     inkscape:pagecheckerboard="0"
     inkscape:deskcolor="#505050"
     inkscape:document-units="mm"
     inkscape:zoom="0.5"
     inkscape:cx="90"
     inkscape:cy="-99"
     inkscape:window-width="1920"
     inkscape:window-height="1009"
     inkscape:window-x="-8"
     inkscape:window-y="-8"
     inkscape:window-maximized="1"
     inkscape:current-layer="layer1" />
  <defs
     id="defs1">
    <inkscape:path-effect
       effect="fillet_chamfer"
       id="path-effect69"
       is_visible="true"
       lpeversion="1"
       nodesatellites_param="F,0,1,1,0,10.582362,0,1 @ F,0,0,1,0,0,0,1 @ F,0,1,1,0,10.582362,0,1 @ F,0,0,1,0,10.582362,0,1"
       radius="0"
       unit="px"
       method="auto"
       mode="F"
       chamfer_steps="1"
       flexible="false"
       use_knot_distance="true"
       apply_no_radius="true"
       apply_with_radius="true"
       only_selected="false"
       hide_knots="false" />
  </defs>
  <g
     inkscape:label="Layer 1"
     inkscape:groupmode="layer"
     id="layer1"
     transform="translate(-65.020321,-230.05624)">
    <path
       id="rect35"
       style="fill:#ffffff;stroke-width:1.54635"
       d="m 75.60262,230.05624 a 10.582362,10.582362 0 0 0 -10.582299,10.5823 v 0.001 a 10.582362,10.582362 0 0 0 10.582299,10.58229 h 49.07297 a 10.582362,10.582362 0 0 0 10.5823,-10.58229 V 230.0562 h -14.1459 v 10.58282 c 0,0.68204 0.16476,1.30521 0.49402,1.86965 0.32926,0.55269 0.77024,0.99947 1.32292,1.34049 0.55268,0.32926 1.17004,0.49403 1.85208,0.49403 0.68203,0 1.2994,-0.16477 1.85209,-0.49403 0.55268,-0.34102 0.99365,-0.7878 1.32291,-1.34049 0.32926,-0.56444 0.49403,-1.18761 0.49403,-1.86965 h -1.90531 l 1.90531,-3.29954 1.90479,-3.30006 v 6.5996 c 0,1.0113 -0.25244,1.93444 -0.75809,2.76934 -0.49389,0.83492 -1.16459,1.49928 -2.01125,1.99316 -0.8349,0.49389 -1.76967,0.74104 -2.80448,0.74104 -1.02303,0 -1.95782,-0.24715 -2.80448,-0.74104 -0.84666,-0.49388 -1.52266,-1.15824 -2.0283,-1.99316 -0.49389,-0.8349 -0.74104,-1.75804 -0.74104,-2.76934 h -5.1e-4 V 230.0562 Z m 14.129371,5.07928 c 0.752591,0 1.446527,0.18853 2.081526,0.56482 0.646759,0.36454 1.170113,0.89952 1.56993,1.60507 0.399813,0.6938 0.599964,1.54037 0.599964,2.5399 v 6.08542 h -1.90531 v -5.82084 c 0,-0.8349 -0.252963,-1.57003 -0.75861,-2.20503 -0.493889,-0.64676 -1.193118,-0.96997 -2.09858,-0.96997 -0.740833,0 -1.405715,0.2704 -1.993677,0.81132 -0.576204,0.52917 -0.86403,1.29967 -0.86403,2.31097 v 5.87355 h -1.904793 v -10.58334 h 1.763716 v 1.71101 c 0.388055,-0.62324 0.887652,-1.0996 1.499134,-1.42885 0.62324,-0.32926 1.293416,-0.49403 2.01073,-0.49403 z m 21.255029,0 c 1.03482,0 1.96958,0.24715 2.80448,0.74104 0.84667,0.49388 1.51684,1.15825 2.01073,1.99316 0.50565,0.82314 0.75861,1.74629 0.75861,2.76934 0,1.0113 -0.25296,1.93443 -0.75861,2.76934 -0.49389,0.8349 -1.16406,1.49927 -2.01073,1.99316 -0.8349,0.49388 -1.76966,0.74104 -2.80448,0.74104 -1.02305,0 -1.95781,-0.24716 -2.80448,-0.74104 -0.84666,-0.49389 -1.52265,-1.15826 -2.0283,-1.99316 -0.49389,-0.83491 -0.74104,-1.75804 -0.74104,-2.76934 0,-1.02305 0.24715,-1.9462 0.74104,-2.76934 0.50565,-0.83491 1.18164,-1.49928 2.0283,-1.99316 0.84667,-0.49389 1.78143,-0.74104 2.80448,-0.74104 z m -35.401453,0.0708 c 0.729073,0 1.411388,0.13519 2.046387,0.40566 0.646759,0.27045 1.205497,0.64699 1.675867,1.12913 v -1.39372 h 1.763716 v 10.58334 h -1.763716 v -1.39372 c -0.47037,0.47037 -1.029108,0.84691 -1.675867,1.12913 -0.634999,0.27047 -1.317314,0.40566 -2.046387,0.40566 -0.964258,0 -1.846204,-0.24082 -2.645833,-0.72295 -0.799629,-0.49389 -1.440235,-1.15245 -1.922363,-1.97559 -0.470371,-0.82315 -0.705384,-1.73466 -0.705384,-2.7342 0,-0.99953 0.235013,-1.91105 0.705384,-2.7342 0.482128,-0.82315 1.122734,-1.47538 1.922363,-1.9575 0.799629,-0.4939 1.681575,-0.74104 2.645833,-0.74104 z m 20.902084,0.14107 h 7.620209 l -5.009516,8.8899 h 4.727356 v 1.69344 h -7.655343 l 5.009513,-8.8899 h -4.692219 z m -20.65507,1.5875 c -0.670277,0 -1.281828,0.17058 -1.834514,0.5116 -0.540925,0.32926 -0.975571,0.77604 -1.30483,1.34049 -0.317499,0.55268 -0.476456,1.17005 -0.476456,1.85208 0,0.68204 0.158957,1.30521 0.476456,1.86965 0.329259,0.55269 0.763905,0.99947 1.30483,1.34049 0.552686,0.32926 1.164237,0.49403 1.834514,0.49403 0.670277,0 1.276017,-0.16477 1.816943,-0.49403 0.552685,-0.34102 0.987847,-0.7878 1.305347,-1.34049 0.329259,-0.56444 0.494026,-1.18761 0.494026,-1.86965 0,-0.68203 -0.164767,-1.2994 -0.494026,-1.85208 -0.3175,-0.56445 -0.752662,-1.01123 -1.305347,-1.34049 -0.540926,-0.34102 -1.146666,-0.5116 -1.816943,-0.5116 z m 35.154439,0 c -0.68203,0 -1.29939,0.17058 -1.85208,0.5116 -0.55269,0.32926 -0.99366,0.77604 -1.32292,1.34049 -0.32926,0.55268 -0.49402,1.17005 -0.49402,1.85208 0,0.68204 0.16476,1.30521 0.49402,1.86965 0.32926,0.55269 0.77023,0.99947 1.32292,1.34049 0.55269,0.32926 1.17005,0.49403 1.85208,0.49403 0.68204,0 1.2994,-0.16477 1.85209,-0.49403 0.55268,-0.34102 0.99365,-0.7878 1.32291,-1.34049 0.32926,-0.56444 0.49403,-1.18761 0.49403,-1.86965 0,-0.68203 -0.16477,-1.2994 -0.49403,-1.85208 -0.32926,-0.56445 -0.77023,-1.01123 -1.32291,-1.34049 -0.55269,-0.34102 -1.17005,-0.5116 -1.85209,-0.5116 z" />
  </g>
</svg>
