<?xml version="1.0" encoding="UTF-8" standalone="no"?>
<!-- Created with Inkscape (http://www.inkscape.org/) -->

<svg
   width="69.708374mm"
   height="21.16563mm"
   viewBox="0 0 69.708373 21.16563"
   version="1.1"
   id="svg1"
   inkscape:version="1.3.2 (091e20e, 2023-11-25, custom)"
   sodipodi:docname="anzol_logo_white.svg"
   xmlns:inkscape="http://www.inkscape.org/namespaces/inkscape"
   xmlns:sodipodi="http://sodipodi.sourceforge.net/DTD/sodipodi-0.dtd"
   xmlns="http://www.w3.org/2000/svg"
   xmlns:svg="http://www.w3.org/2000/svg">
  <sodipodi:namedview
     id="namedview1"
     pagecolor="#505050"
     bordercolor="#eeeeee"
     borderopacity="1"
     inkscape:showpageshadow="0"
     inkscape:pageopacity="0"
     inkscape:pagecheckerboard="0"
     inkscape:deskcolor="#505050"
     inkscape:document-units="mm"
     inkscape:zoom="0.7071068"
     inkscape:cx="12.727922"
     inkscape:cy="-133.64318"
     inkscape:window-width="1920"
     inkscape:window-height="1009"
     inkscape:window-x="-8"
     inkscape:window-y="-8"
     inkscape:window-maximized="1"
     inkscape:current-layer="layer1" />
  <defs
     id="defs1">
    <inkscape:path-effect
       effect="fillet_chamfer"
       id="path-effect69"
       is_visible="true"
       lpeversion="1"
       nodesatellites_param="F,0,1,1,0,10.582362,0,1 @ F,0,0,1,0,0,0,1 @ F,0,1,1,0,10.582362,0,1 @ F,0,0,1,0,10.582362,0,1"
       radius="0"
       unit="px"
       method="auto"
       mode="F"
       chamfer_steps="1"
       flexible="false"
       use_knot_distance="true"
       apply_no_radius="true"
       apply_with_radius="true"
       only_selected="false"
       hide_knots="false" />
  </defs>
  <g
     inkscape:label="Layer 1"
     inkscape:groupmode="layer"
     id="layer1"
     transform="translate(-73.566134,-239.27342)">
    <path
       id="path2-0"
       style="fill:#ffffff;fill-opacity:1;stroke-width:1.54635"
       d="m 84.148431,239.27345 c -5.844428,5e-5 -10.582263,4.73787 -10.582297,10.58231 v 0.001 c 4e-5,5.84442 4.737873,10.58225 10.582297,10.58229 h 48.543779 c 5.84443,-3e-5 10.58226,-4.73787 10.5823,-10.58229 v -10.58334 h -14.1459 v 10.58282 c 0,0.68204 0.16476,1.30521 0.49402,1.86965 0.32926,0.55269 0.77024,0.99947 1.32292,1.34049 0.55268,0.32926 1.17004,0.49403 1.85208,0.49403 0.68203,0 1.2994,-0.16477 1.85209,-0.49403 0.55268,-0.34102 0.99365,-0.7878 1.32291,-1.34049 0.32926,-0.56444 0.49403,-1.18761 0.49403,-1.86965 h -1.90531 l 1.90531,-3.29954 1.90479,-3.30006 v 6.5996 c 0,1.0113 -0.25244,1.93444 -0.75809,2.76934 -0.49389,0.83492 -1.16459,1.49928 -2.01125,1.99315 -0.8349,0.4939 -1.76967,0.74104 -2.80448,0.74104 -1.02303,0 -1.95782,-0.24714 -2.80448,-0.74104 -0.84666,-0.49387 -1.52266,-1.15823 -2.0283,-1.99315 -0.49389,-0.8349 -0.74104,-1.75804 -0.74104,-2.76934 h -5.1e-4 v -10.58282 z m 13.928972,5.07929 c 0.75259,0 1.44653,0.18852 2.081527,0.56481 0.64676,0.36455 1.17011,0.89953 1.56993,1.60508 0.39981,0.6938 0.59996,1.54036 0.59996,2.5399 v 6.08542 h -1.90531 v -5.82085 c 0,-0.8349 -0.25296,-1.57003 -0.758607,-2.20503 -0.49389,-0.64675 -1.19312,-0.96997 -2.098582,-0.96997 -0.74083,0 -1.40571,0.2704 -1.993669,0.81133 -0.57621,0.52917 -0.864031,1.29967 -0.864031,2.31097 v 5.87355 h -1.9048 v -10.58334 h 1.763721 v 1.711 c 0.38805,-0.62324 0.887649,-1.0996 1.499129,-1.42885 0.623241,-0.32925 1.293421,-0.49403 2.010732,-0.49402 z m 21.455407,0 c 1.03482,0 1.96958,0.24715 2.80448,0.74104 0.84667,0.49388 1.51684,1.15824 2.01073,1.99316 0.50565,0.82313 0.75861,1.74628 0.75861,2.76933 0,1.0113 -0.25296,1.93443 -0.75861,2.76935 -0.49389,0.83489 -1.16406,1.49926 -2.01073,1.99316 -0.8349,0.49387 -1.76966,0.74104 -2.80448,0.74104 -1.02304,0 -1.9578,-0.24717 -2.80447,-0.74104 -0.84666,-0.4939 -1.52265,-1.15827 -2.0283,-1.99316 -0.49389,-0.83492 -0.74104,-1.75805 -0.74104,-2.76935 0,-1.02305 0.24715,-1.9462 0.74104,-2.76933 0.50565,-0.83492 1.18164,-1.49928 2.0283,-1.99316 0.84667,-0.49389 1.78143,-0.74104 2.80447,-0.74104 z m -35.401429,0.0708 c 0.72907,0 1.41139,0.13519 2.04639,0.40567 0.64675,0.27044 1.20549,0.64698 1.67586,1.12913 v -1.39372 h 1.76372 v 10.58334 h -1.76372 v -1.39373 c -0.47037,0.47038 -1.02911,0.84691 -1.67586,1.12914 -0.635,0.27046 -1.31732,0.40566 -2.04639,0.40566 -0.964259,0 -1.846205,-0.24082 -2.645834,-0.72295 -0.799629,-0.4939 -1.440235,-1.15245 -1.922363,-1.97559 -0.470371,-0.82315 -0.705384,-1.73467 -0.705384,-2.7342 0,-0.99953 0.235013,-1.91105 0.705384,-2.7342 0.482128,-0.82315 1.122734,-1.47538 1.922363,-1.95751 0.799629,-0.49389 1.681575,-0.74104 2.645834,-0.74104 z m 20.902079,0.14108 h 7.6202 l -5.0095,8.8899 h 4.72734 v 1.69344 h -7.65533 l 5.00951,-8.8899 h -4.69222 z m -20.655069,1.58749 c -0.670274,0 -1.281825,0.17059 -1.834511,0.51161 -0.540925,0.32926 -0.975571,0.77603 -1.30483,1.34048 -0.317499,0.55268 -0.476456,1.17006 -0.476456,1.85208 0,0.68204 0.158957,1.30521 0.476456,1.86965 0.329259,0.5527 0.763905,0.99948 1.30483,1.34049 0.552686,0.32926 1.164237,0.49403 1.834511,0.49403 0.67028,0 1.27602,-0.16477 1.81695,-0.49403 0.55268,-0.34101 0.98784,-0.7878 1.30534,-1.34049 0.32926,-0.56443 0.49403,-1.18761 0.49403,-1.86965 0,-0.68202 -0.16477,-1.2994 -0.49403,-1.85208 -0.3175,-0.56445 -0.75266,-1.01122 -1.30534,-1.34048 -0.54093,-0.34102 -1.14667,-0.51161 -1.81695,-0.51161 z m 35.154419,0 c -0.68202,0 -1.29938,0.17059 -1.85207,0.51161 -0.55269,0.32926 -0.99366,0.77603 -1.32292,1.34048 -0.32926,0.55268 -0.49402,1.17006 -0.49402,1.85208 0,0.68204 0.16476,1.30521 0.49402,1.86965 0.32926,0.5527 0.77023,0.99948 1.32292,1.34049 0.55269,0.32926 1.17005,0.49403 1.85207,0.49403 0.68204,0 1.2994,-0.16477 1.85209,-0.49403 0.55268,-0.34101 0.99365,-0.7878 1.32291,-1.34049 0.32926,-0.56443 0.49403,-1.18761 0.49403,-1.86965 0,-0.68202 -0.16477,-1.2994 -0.49403,-1.85208 -0.32926,-0.56445 -0.77023,-1.01122 -1.32291,-1.34048 -0.55269,-0.34102 -1.17005,-0.51161 -1.85209,-0.51161 z"
       sodipodi:nodetypes="csscccccsccsccccccsccsscccccsccsccscscsccccccssccsccsccscsssccccccccsccsccscccccccccsccsccsccsccssccsccsccsccs" />
  </g>
</svg>
